<svg width="21" height="20" viewBox="0 0 21 20" fill="none" xmlns="http://www.w3.org/2000/svg">
<path fill-rule="evenodd" clip-rule="evenodd" d="M12.8828 2.5H8.51758C7.56514 2.49999 6.80459 2.49999 6.19033 2.55018C5.56032 2.60165 5.01843 2.70963 4.52074 2.96322C3.72105 3.37068 3.07088 4.02085 2.66342 4.82054C2.40983 5.31824 2.30185 5.86012 2.25037 6.49013C2.20018 7.10439 2.20019 7.86494 2.2002 8.81738V8.81739V11.1826V11.1826C2.20019 12.1351 2.20018 12.8956 2.25037 13.5099C2.30185 14.1399 2.40983 14.6818 2.66342 15.1795C3.07088 15.9791 3.72105 16.6293 4.52074 17.0368C5.01843 17.2904 5.56032 17.3984 6.19033 17.4498C6.80459 17.5 7.56513 17.5 8.51757 17.5H12.8828C13.8353 17.5 14.5958 17.5 15.2101 17.4498C15.8401 17.3984 16.382 17.2904 16.8797 17.0368C17.6793 16.6293 18.3295 15.9791 18.737 15.1795C18.9906 14.6818 19.0985 14.1399 19.15 13.5099C19.2002 12.8956 19.2002 12.1351 19.2002 11.1827V11.1826V8.81737V8.8173C19.2002 7.8649 19.2002 7.10438 19.15 6.49013C19.0985 5.86012 18.9906 5.31824 18.737 4.82054C18.3295 4.02085 17.6793 3.37068 16.8797 2.96322C16.382 2.70963 15.8401 2.60165 15.2101 2.55018C14.5958 2.49999 13.8353 2.49999 12.8828 2.5ZM5.20172 4.29973C5.45272 4.17184 5.77522 4.08909 6.31248 4.04519C6.85848 4.00058 7.55773 4 8.5502 4H12.8502C13.8427 4 14.5419 4.00058 15.0879 4.04519C15.6252 4.08909 15.9477 4.17184 16.1987 4.29973C16.7161 4.56338 17.1368 4.98408 17.4005 5.50153C17.5284 5.75252 17.6111 6.07503 17.655 6.61228C17.6996 7.15829 17.7002 7.85753 17.7002 8.85V11.15C17.7002 12.1425 17.6996 12.8417 17.655 13.3877C17.6111 13.925 17.5284 14.2475 17.4005 14.4985C17.1368 15.0159 16.7161 15.4366 16.1987 15.7003C15.9477 15.8282 15.6252 15.9109 15.0879 15.9548C14.5419 15.9994 13.8427 16 12.8502 16H8.5502C7.55773 16 6.85848 15.9994 6.31248 15.9548C5.77523 15.9109 5.45272 15.8282 5.20172 15.7003C4.68428 15.4366 4.26358 15.0159 3.99993 14.4985C3.87204 14.2475 3.78928 13.925 3.74539 13.3877C3.70078 12.8417 3.7002 12.1425 3.7002 11.15V8.85C3.7002 7.85753 3.70078 7.15829 3.74539 6.61228C3.78928 6.07503 3.87204 5.75252 3.99993 5.50153C4.26358 4.98408 4.68428 4.56338 5.20172 4.29973ZM4.72492 6.45686C4.7002 6.60239 4.7002 6.77659 4.7002 7.125V12.875C4.7002 13.2234 4.7002 13.3976 4.72492 13.5431C4.8495 14.2763 5.42387 14.8507 6.15706 14.9753C6.30258 15 6.47679 15 6.8252 15C7.1736 15 7.34781 15 7.49333 14.9753C8.22652 14.8507 8.80089 14.2763 8.92547 13.5431C8.9502 13.3976 8.9502 13.2234 8.9502 12.875V7.125C8.9502 6.77659 8.9502 6.60239 8.92547 6.45686C8.80089 5.72367 8.22652 5.1493 7.49333 5.02473C7.34781 5 7.1736 5 6.8252 5C6.47679 5 6.30258 5 6.15706 5.02473C5.42387 5.1493 4.8495 5.72367 4.72492 6.45686Z" fill="#707480"/>
</svg>
