<svg width="21" height="20" viewBox="0 0 21 20" fill="none" xmlns="http://www.w3.org/2000/svg">
<path fill-rule="evenodd" clip-rule="evenodd" d="M12.8828 2.5H8.51758H8.51758C7.56514 2.49999 6.80459 2.49999 6.19033 2.55018C5.56032 2.60165 5.01843 2.70963 4.52074 2.96322C3.72105 3.37068 3.07088 4.02085 2.66342 4.82054C2.40983 5.31824 2.30185 5.86012 2.25037 6.49013C2.20018 7.10439 2.20019 7.86494 2.2002 8.81738V8.81739V11.1826C2.20019 12.1351 2.20018 12.8956 2.25037 13.5099C2.30185 14.1399 2.40983 14.6818 2.66342 15.1795C3.07088 15.9791 3.72105 16.6293 4.52074 17.0368C5.01843 17.2904 5.56032 17.3984 6.19033 17.4498C6.80459 17.5 7.56513 17.5 8.51757 17.5H12.8828C13.8353 17.5 14.5958 17.5 15.2101 17.4498C15.8401 17.3984 16.382 17.2904 16.8797 17.0368C17.6793 16.6293 18.3295 15.9791 18.737 15.1795C18.9906 14.6818 19.0985 14.1399 19.15 13.5099C19.2002 12.8956 19.2002 12.1351 19.2002 11.1827V11.1826V8.81737V8.8173C19.2002 7.8649 19.2002 7.10438 19.15 6.49013C19.0985 5.86012 18.9906 5.31824 18.737 4.82054C18.3295 4.02085 17.6793 3.37068 16.8797 2.96322C16.382 2.70963 15.8401 2.60165 15.2101 2.55018C14.5958 2.49999 13.8353 2.49999 12.8828 2.5ZM5.20172 4.29973C5.45272 4.17184 5.77522 4.08909 6.31248 4.04519C6.79195 4.00602 7.38959 4.0008 8.2002 4.0001V15.9999C7.38959 15.9992 6.79195 15.994 6.31248 15.9548C5.77522 15.9109 5.45272 15.8282 5.20172 15.7003C4.68428 15.4366 4.26358 15.0159 3.99993 14.4985C3.87204 14.2475 3.78928 13.925 3.74539 13.3877C3.70078 12.8417 3.7002 12.1425 3.7002 11.15V8.85C3.7002 7.85753 3.70078 7.15829 3.74539 6.61228C3.78928 6.07503 3.87204 5.75252 3.99993 5.50153C4.26358 4.98408 4.68428 4.56338 5.20172 4.29973ZM9.7002 16H12.8502C13.8427 16 14.5419 15.9994 15.0879 15.9548C15.6252 15.9109 15.9477 15.8282 16.1987 15.7003C16.7161 15.4366 17.1368 15.0159 17.4005 14.4985C17.5284 14.2475 17.6111 13.925 17.655 13.3877C17.6996 12.8417 17.7002 12.1425 17.7002 11.15V8.85C17.7002 7.85753 17.6996 7.15829 17.655 6.61228C17.6111 6.07503 17.5284 5.75252 17.4005 5.50153C17.1368 4.98408 16.7161 4.56338 16.1987 4.29973C15.9477 4.17184 15.6252 4.08909 15.0879 4.04519C14.5419 4.00058 13.8427 4 12.8502 4H9.7002V16ZM4.4502 6.5C4.4502 6.08579 4.78598 5.75 5.2002 5.75H6.7002C7.11441 5.75 7.4502 6.08579 7.4502 6.5C7.4502 6.91421 7.11441 7.25 6.7002 7.25H5.2002C4.78598 7.25 4.4502 6.91421 4.4502 6.5ZM5.2002 8C4.78598 8 4.4502 8.33579 4.4502 8.75C4.4502 9.16421 4.78598 9.5 5.2002 9.5H6.7002C7.11441 9.5 7.4502 9.16421 7.4502 8.75C7.4502 8.33579 7.11441 8 6.7002 8H5.2002Z" fill="#707480"/>
</svg>
