<?xml version="1.0" encoding="UTF-8"?>
<svg id="_图层_2" data-name="图层 2" xmlns="http://www.w3.org/2000/svg" viewBox="0 0 605.64 202.96">
  <defs>
    <style>
      .cls-1 {
        font-family: ArialRoundedMTBold, 'Arial Rounded MT Bold';
        font-size: 154.8px;
      }
    </style>
  </defs>
  <g id="_图层_1-2" data-name="图层 1">
    <g>
      <g>
        <path d="M111.31,50.59V115.69c0,5.52-4.48,10-10,10s-10-4.48-10-10V42.54c0-.39,.02-.77,.07-1.15,3.23-.53,6.55-.8,9.93-.8,5.52,0,10,4.48,10,10Z"/>
        <path d="M181.8,163.24c-17.16,22.41-41.91,35.67-67.92,38.93-25.5,3.19-52.2-3.23-74.17-20.04C-4.67,148.16-13.14,84.42,20.82,40.04c3.36-4.38,9.64-5.22,14.02-1.86,4.39,3.36,5.22,9.63,1.87,14.02-27.27,35.62-20.47,86.78,15.16,114.05,17.08,13.07,38.2,18.78,59.52,16.12,.22-.03,.43-.06,.64-.08,21.54-2.87,40.68-13.95,53.88-31.2,27.27-35.63,20.47-86.79-15.16-114.05-6.06-4.63-12.61-8.35-19.51-11.09-1.88-.75-2.87-2.86-2.11-4.73,1.41-3.47,2.18-7.26,2.18-11.22,0-.02,0-.04,0-.05,0-2.58,2.5-4.39,4.93-3.5,9.47,3.48,18.44,8.42,26.67,14.72,44.38,33.96,52.85,97.7,18.89,142.08Z"/>
        <path d="M162.9,102.17c0,33.96-27.63,61.59-61.59,61.59s-61.59-27.63-61.59-61.59c0-30.57,22.4-56.02,51.66-60.78,3.23-.53,6.55-.8,9.93-.8,5.52,0,10,4.48,10,10s-4.48,10-10,10c-3.45,0-6.79,.42-10,1.22-18.12,4.48-31.59,20.88-31.59,40.36,0,22.93,18.66,41.59,41.59,41.59s41.59-18.66,41.59-41.59c0-5.52,4.47-10,10-10s10,4.48,10,10Z"/>
        <circle cx="101.31" cy="10" r="10"/>
      </g>
      <text class="cls-1" transform="translate(255.6 156.9)"><tspan x="0" y="0">Ooci</tspan></text>
    </g>
  </g>
</svg>